<svg width="200" height="200" viewBox="0 0 200 200" fill="none" xmlns="http://www.w3.org/2000/svg">
<rect width="200" height="200" rx="100" fill="#44B97A"/>
<path d="M145 60.0001C153.837 60.0002 161 67.1636 161 76.0001V124C161 132.837 153.837 140 145 140H55C46.1635 140 39 132.837 39 124L39.0001 76C39.0001 67.1634 46.1635 60 55.0001 60L145 60.0001ZM83.2341 109.804V119.608H95.2097V129.412H104.79V119.608H109.58C112.757 119.608 115.803 118.317 118.048 116.018C120.294 113.72 121.556 110.603 121.556 107.353C121.556 104.103 120.294 100.986 118.048 98.6875C115.803 96.3892 112.757 95.0981 109.58 95.0981H90.4195C89.7842 95.0981 89.175 94.8399 88.7259 94.3802C88.2767 93.9206 88.0244 93.2971 88.0244 92.6471C88.0244 91.9971 88.2767 91.3736 88.7259 90.914C89.175 90.4544 89.7842 90.1961 90.4195 90.1961H116.766V80.3922H104.79V70.5883H95.2097V80.3922H90.4195C87.2433 80.3922 84.1973 81.6834 81.9515 83.9816C79.7056 86.2798 78.4439 89.3969 78.4439 92.6471C78.4439 95.8973 79.7056 99.0144 81.9515 101.313C84.1973 103.611 87.2433 104.902 90.4195 104.902H109.58C110.216 104.902 110.825 105.16 111.274 105.62C111.723 106.08 111.976 106.703 111.976 107.353C111.976 108.003 111.723 108.626 111.274 109.086C110.825 109.546 110.216 109.804 109.58 109.804H83.2341Z" fill="black" fill-opacity="0.7"/>
</svg>
