<svg width="200" height="200" viewBox="0 0 200 200" fill="none" xmlns="http://www.w3.org/2000/svg">
<rect width="200" height="200" rx="100" fill="#44ABB9"/>
<path d="M139.382 90.5896C136.539 90.5883 133.719 91.1041 131.059 92.1119L118.7 70.8827H131.516C132.559 70.8827 133.56 71.298 134.297 72.0371C135.035 72.7763 135.449 73.7788 135.449 74.8241C135.449 75.8694 135.863 76.8719 136.601 77.6111C137.339 78.3502 138.339 78.7655 139.382 78.7655C140.425 78.7655 141.425 78.3502 142.163 77.6111C142.9 76.8719 143.315 75.8694 143.315 74.8241C143.315 71.6882 142.072 68.6807 139.859 66.4632C137.646 64.2458 134.645 63 131.516 63H111.852C111.162 63.0016 110.485 63.1848 109.889 63.5314C109.292 63.878 108.797 64.3757 108.453 64.9746C108.109 65.5735 107.928 66.2525 107.928 66.9436C107.928 67.6347 108.11 68.3135 108.455 68.9121L114.182 78.7655H85.9246L77.8868 64.9707C77.5424 64.3728 77.0473 63.8761 76.4511 63.5303C75.855 63.1844 75.1786 63.0016 74.4898 63H60.7248C59.6817 63 58.6814 63.4153 57.9438 64.1544C57.2063 64.8936 56.7919 65.8961 56.7919 66.9414C56.7919 67.9867 57.2063 68.9892 57.9438 69.7283C58.6814 70.4675 59.6817 70.8827 60.7248 70.8827H72.2333L78.9732 82.4654L71.2501 93.0825C65.9438 90.4213 59.8334 89.8552 54.1302 91.4966C48.4271 93.1379 43.5474 96.8669 40.4586 101.944C37.3698 107.021 36.2973 113.077 37.4538 118.909C38.6102 124.742 41.9111 129.926 46.7022 133.434C51.4933 136.942 57.4247 138.518 63.3208 137.85C69.2169 137.181 74.6471 134.317 78.5351 129.825C82.4231 125.333 84.4851 119.541 84.3122 113.597C84.1393 107.653 81.7442 101.991 77.6017 97.7333L83.2994 89.8998L98.6228 116.208C98.8622 116.69 99.1977 117.118 99.6085 117.465C100.019 117.812 100.497 118.071 101.011 118.226C101.526 118.381 102.066 118.429 102.6 118.367C103.134 118.304 103.649 118.133 104.114 117.863C104.579 117.593 104.984 117.231 105.303 116.798C105.623 116.366 105.851 115.872 105.973 115.348C106.095 114.823 106.109 114.279 106.013 113.75C105.918 113.22 105.715 112.715 105.417 112.267L90.5113 86.6482H118.769L124.27 96.0927C120.011 99.66 117.143 104.618 116.171 110.094C115.198 115.571 116.183 121.216 118.952 126.037C121.722 130.857 126.098 134.546 131.312 136.453C136.527 138.36 142.245 138.364 147.462 136.464C152.679 134.564 157.06 130.882 159.836 126.066C162.613 121.249 163.606 115.605 162.641 110.127C161.676 104.649 158.815 99.6875 154.561 96.1142C150.307 92.5408 144.933 90.5847 139.382 90.5896ZM76.4562 114.238C76.4571 117.61 75.3792 120.893 73.3806 123.606C71.3821 126.319 68.5682 128.318 65.3523 129.31C62.1364 130.302 58.6878 130.234 55.513 129.117C52.3383 128 49.6046 125.892 47.7133 123.103C45.8221 120.314 44.8731 116.991 45.0055 113.622C45.138 110.252 46.345 107.014 48.4493 104.383C50.5536 101.751 53.4443 99.8656 56.6969 99.0022C59.9496 98.1388 63.3927 98.3434 66.5208 99.5858L57.549 111.903C57.2223 112.319 56.9828 112.797 56.8446 113.308C56.7064 113.819 56.6725 114.353 56.7448 114.878C56.8171 115.403 56.9942 115.907 57.2655 116.362C57.5367 116.816 57.8966 117.211 58.3237 117.523C58.7507 117.835 59.2361 118.058 59.7509 118.178C60.2657 118.298 60.7993 118.312 61.3198 118.221C61.8404 118.129 62.3372 117.934 62.7806 117.645C63.224 117.357 63.6049 116.982 63.9005 116.543L72.8724 104.227C75.1924 107.045 76.4597 110.585 76.4562 114.238ZM139.382 130.003C136.266 130.001 133.221 129.071 130.633 127.332C128.045 125.593 126.031 123.123 124.845 120.236C123.66 117.348 123.357 114.172 123.975 111.112C124.593 108.051 126.104 105.243 128.316 103.044L135.985 116.208C136.224 116.69 136.56 117.118 136.971 117.465C137.381 117.812 137.859 118.071 138.373 118.226C138.888 118.381 139.428 118.429 139.962 118.367C140.496 118.304 141.011 118.133 141.476 117.863C141.941 117.593 142.346 117.231 142.666 116.798C142.985 116.366 143.213 115.872 143.336 115.348C143.458 114.823 143.471 114.279 143.376 113.75C143.28 113.22 143.077 112.715 142.779 112.267L135.105 99.0685C137.269 98.4545 139.539 98.3127 141.762 98.6526C143.986 98.9925 146.11 99.8061 147.993 101.039C149.876 102.271 151.473 103.894 152.677 105.798C153.881 107.701 154.664 109.842 154.973 112.074C155.281 114.307 155.109 116.579 154.467 118.739C153.824 120.899 152.728 122.896 151.25 124.595C149.772 126.295 147.949 127.657 145.901 128.589C143.854 129.522 141.631 130.004 139.382 130.003Z" fill="black" fill-opacity="0.7"/>
</svg>
