<svg width="200" height="200" viewBox="0 0 200 200" fill="none" xmlns="http://www.w3.org/2000/svg">
<rect width="200" height="200" rx="100" fill="#44ABB9"/>
<path d="M80.1812 65H119.819C122.794 65 125.441 66.8813 126.425 69.6812L132.134 86H67.8656L73.575 69.6812C74.5594 66.8813 77.2062 65 80.1812 65ZM60.3625 65.0656L52.6625 87.05C47.5875 89.15 44 94.1594 44 100V117.5C44 122.684 46.8219 127.213 51 129.619V142C51 145.872 54.1281 149 58 149H65C68.8719 149 72 145.872 72 142V131.5H128V142C128 145.872 131.128 149 135 149H142C145.872 149 149 145.872 149 142V129.619C153.178 127.191 156 122.684 156 117.5V100C156 94.1594 152.412 89.15 147.338 87.05L139.638 65.0656C136.684 56.6438 128.744 51 119.819 51H80.1812C71.2562 51 63.3156 56.6438 60.3625 65.0656ZM89.5 103.5H110.5C112.425 103.5 114 105.075 114 107V114C114 115.925 112.425 117.5 110.5 117.5H89.5C87.575 117.5 86 115.925 86 114V107C86 105.075 87.575 103.5 89.5 103.5ZM54.5 105.25C54.5 102.341 56.8406 100 59.75 100H66.75C69.6594 100 72 102.341 72 105.25C72 108.159 69.6594 110.5 66.75 110.5H59.75C56.8406 110.5 54.5 108.159 54.5 105.25ZM133.25 100H140.25C143.159 100 145.5 102.341 145.5 105.25C145.5 108.159 143.159 110.5 140.25 110.5H133.25C130.341 110.5 128 108.159 128 105.25C128 102.341 130.341 100 133.25 100Z" fill="black" fill-opacity="0.7"/>
</svg>
