<svg width="200" height="200" viewBox="0 0 200 200" fill="none" xmlns="http://www.w3.org/2000/svg">
<rect width="200" height="200" rx="100" fill="#62B944"/>
<path d="M99.9798 136.909C104.54 136.909 108.411 139.756 109.896 143.711C112.813 143.078 115.623 142.182 118.327 140.969L108.995 119.087C106.237 120.405 103.215 121.091 99.9798 121.091C96.7452 121.091 93.7226 120.405 90.9651 119.087L81.6323 140.969C84.3367 142.182 87.1471 143.078 90.0637 143.711C91.5484 139.756 95.4195 136.909 99.9798 136.909ZM133.122 130.371C131.796 128.578 130.789 126.364 130.789 123.727C130.789 117.98 135.561 113.182 141.394 113.182L143.038 113.34C144.364 109.122 145.053 104.64 145.053 100C145.053 95.36 144.364 90.8782 143.038 86.8182H141.394C135.508 86.8182 130.789 82.1255 130.789 76.2727C130.789 73.6364 131.637 71.4745 133.122 69.6291C126.926 62.935 118.823 58.2809 109.896 56.2891C108.411 60.2436 104.54 63.0909 99.9798 63.0909C95.4195 63.0909 91.5484 60.2436 90.0637 56.2891C81.1364 58.2809 73.0332 62.935 66.8375 69.6291C68.3223 71.4745 69.2238 73.7945 69.2238 76.2727C69.2238 79.0696 68.1064 81.7518 66.1175 83.7295C64.1286 85.7071 61.431 86.8182 58.6182 86.8182H56.9214C55.5957 90.9309 54.9063 95.36 54.9063 100C54.9063 104.693 55.6487 109.175 56.9744 113.445L58.6182 113.182C64.5043 113.182 69.2238 118.033 69.2238 123.727C69.2238 126.364 68.3753 128.631 66.8906 130.424C68.5875 132.269 70.4964 133.956 72.4585 135.485L82.5337 111.969C80.1475 108.542 78.7688 104.429 78.7688 100C78.7688 94.4063 81.0035 89.0418 84.9813 85.0865C88.9592 81.1312 94.3543 78.9091 99.9798 78.9091C105.605 78.9091 111 81.1312 114.978 85.0865C118.956 89.0418 121.191 94.4063 121.191 100C121.191 104.429 119.812 108.542 117.426 111.969L127.501 135.485C129.516 133.956 131.372 132.216 133.122 130.371ZM99.9798 158C94.6771 158 90.2227 154.098 89.3743 148.984C86.0041 148.265 82.7169 147.205 79.5642 145.82L74.3675 158H62.8605L70.3374 140.495C67.5185 138.49 64.9388 136.173 62.6483 133.587C61.3757 134.115 60.05 134.273 58.6182 134.273C55.8055 134.273 53.1079 133.162 51.119 131.184C49.1301 129.206 48.0127 126.524 48.0127 123.727C48.0127 120.458 49.6035 117.505 52.0958 115.555C48.789 105.502 48.7705 94.6669 52.0428 84.6036C50.3102 83.2425 49.0466 81.379 48.4271 79.2715C47.8077 77.1641 47.8632 74.9172 48.5859 72.8426C49.3086 70.7679 50.6627 68.9683 52.4603 67.6933C54.258 66.4183 56.4101 65.7312 58.6182 65.7273C59.997 65.7273 61.3227 66.0436 62.4893 66.5182C69.5598 58.6332 78.9798 53.2017 89.3743 51.0164C90.2227 45.9018 94.6771 42 99.9798 42C105.283 42 109.737 45.9018 110.585 51.0164C121.191 53.2309 130.418 58.7673 137.417 66.4655C138.637 65.9909 139.963 65.7273 141.394 65.7273C144.207 65.7273 146.905 66.8383 148.894 68.816C150.883 70.7936 152 73.4759 152 76.2727C151.994 77.8699 151.624 79.445 150.917 80.879C150.209 82.3131 149.184 83.5686 147.917 84.5509C149.508 89.4545 150.356 94.7273 150.356 100C150.356 105.273 149.508 110.545 147.917 115.449C150.356 117.4 152 120.405 152 123.727C152 129.633 147.281 134.273 141.394 134.273C139.963 134.273 138.637 134.062 137.364 133.535C135.031 136.118 132.433 138.438 129.622 140.495L137.099 158H125.592L120.396 145.82C117.214 147.191 113.926 148.298 110.585 148.984C109.737 154.098 105.283 158 99.9798 158Z" fill="black" fill-opacity="0.7"/>
</svg>
