<svg width="200" height="200" viewBox="0 0 200 200" fill="none" xmlns="http://www.w3.org/2000/svg">
<rect width="200" height="200" rx="100" fill="#44B9B2"/>
<path d="M140 105V140C140 142.652 138.946 145.196 137.071 147.071C135.196 148.946 132.652 150 130 150C127.348 150 124.804 148.946 122.929 147.071C121.054 145.196 120 142.652 120 140V115H110V65C110 61.0218 111.58 57.2064 114.393 54.3934C117.206 51.5804 121.022 50 125 50H140V105ZM70 100C67.3478 100 64.8043 98.9464 62.9289 97.0711C61.0536 95.1957 60 92.6522 60 90V55C60 53.6739 60.5268 52.4021 61.4645 51.4645C62.4021 50.5268 63.6739 50 65 50C66.3261 50 67.5979 50.5268 68.5355 51.4645C69.4732 52.4021 70 53.6739 70 55V75H75V55C75 53.6739 75.5268 52.4021 76.4645 51.4645C77.4021 50.5268 78.6739 50 80 50C81.3261 50 82.5979 50.5268 83.5355 51.4645C84.4732 52.4021 85 53.6739 85 55V75H90V55C90 53.6739 90.5268 52.4021 91.4645 51.4645C92.4021 50.5268 93.6739 50 95 50C96.3261 50 97.5979 50.5268 98.5355 51.4645C99.4732 52.4021 100 53.6739 100 55V90C100 92.6522 98.9464 95.1957 97.0711 97.0711C95.1957 98.9464 92.6522 100 90 100V140C90 142.652 88.9464 145.196 87.0711 147.071C85.1957 148.946 82.6522 150 80 150C77.3478 150 74.8043 148.946 72.9289 147.071C71.0536 145.196 70 142.652 70 140V100Z" fill="black" fill-opacity="0.7"/>
</svg>
