<svg width="200" height="200" viewBox="0 0 200 200" fill="none" xmlns="http://www.w3.org/2000/svg">
<rect width="200" height="200" rx="100" fill="#44ABB9"/>
<path d="M115 136H55C53.35 136 52 137.35 52 139V145C52 146.65 53.35 148 55 148H115C116.65 148 118 146.65 118 145V139C118 137.35 116.65 136 115 136ZM144.475 72.1188L129.288 56.9312C128.125 55.7687 126.213 55.7687 125.05 56.9312L122.931 59.05C121.769 60.2125 121.769 62.125 122.931 63.2875L130 70.3563V82C130 87.2687 133.919 91.6187 139 92.35V122.5C139 124.975 136.975 127 134.5 127C132.025 127 130 124.975 130 122.5V116.5C130 107.388 122.613 100 113.5 100H112V64C112 57.3813 106.619 52 100 52H70C63.3813 52 58 57.3813 58 64V130H112V109H113.5C117.644 109 121 112.356 121 116.5V121.712C121 128.781 126.062 135.213 133.094 135.944C141.156 136.75 148 130.412 148 122.5V80.6125C148 77.425 146.725 74.3688 144.475 72.1188ZM100 88H70V64H100V88Z" fill="black" fill-opacity="0.7"/>
</svg>
