<svg width="200" height="200" viewBox="0 0 200 200" fill="none" xmlns="http://www.w3.org/2000/svg">
<rect width="200" height="200" rx="100" fill="#5EC7A1"/>
<path d="M140 152H59V140.986C59 138.224 61.2386 135.986 64 135.986H135C137.761 135.986 140 138.224 140 140.986V152ZM124.699 63.7002H111.186V52C111.186 49.2386 108.947 47 106.186 47H93.9403C91.1789 47 88.9403 49.2386 88.9403 52V63.7002H74.3009V52C74.3009 49.2386 72.0623 47 69.3009 47H64.6588C61.8974 47 59.6588 49.2386 59.6588 52V77.339H139.341V52C139.341 49.2386 137.103 47 134.341 47H129.699C126.938 47 124.699 49.2386 124.699 52V63.7002ZM131.004 81.6441H67.9964V131.715H131.004V81.6441Z" fill="black" fill-opacity="0.7"/>
</svg>
