<svg width="200" height="200" viewBox="0 0 200 200" fill="none" xmlns="http://www.w3.org/2000/svg">
<rect width="200" height="200" rx="100" fill="#4496B9"/>
<path d="M90.4 151V130.8C90.4 128.121 91.4641 125.552 93.3582 123.658C95.2523 121.764 97.8213 120.7 100.5 120.7C103.179 120.7 105.748 121.764 107.642 123.658C109.536 125.552 110.6 128.121 110.6 130.8V151H130.8V100.5C130.8 99.6286 130.574 98.7721 130.145 98.0137C129.716 97.2553 129.098 96.6209 128.351 96.1721L105.55 82.4917V70.2H115.65V60.1H105.55V50H95.45V60.1H85.35V70.2H95.45V82.4917L72.6493 96.1721C71.9023 96.6209 71.2842 97.2553 70.855 98.0137C70.4258 98.7721 70.2002 99.6286 70.2 100.5V151H90.4ZM65.15 151V110.004L52.7927 116.185C51.9532 116.603 51.2471 117.248 50.7537 118.045C50.2604 118.843 49.9993 119.762 50 120.7V151C55.05 151 60.1 151 65.15 151ZM148.207 116.18L135.85 110.004V151C140.284 151 151 151 151 151V120.7C151 118.786 149.919 117.039 148.207 116.18Z" fill="black" fill-opacity="0.7"/>
</svg>
