<svg width="200" height="200" viewBox="0 0 200 200" fill="none" xmlns="http://www.w3.org/2000/svg">
<rect width="200" height="200" rx="100" fill="#B9B678"/>
<path d="M49 100C49 86.474 54.3732 73.5019 63.9376 63.9376C73.5019 54.3732 86.474 49 100 49C113.526 49 126.498 54.3732 136.062 63.9376C145.627 73.5019 151 86.474 151 100C151 113.526 145.627 126.498 136.062 136.062C126.498 145.627 113.526 151 100 151C86.474 151 73.5019 145.627 63.9376 136.062C54.3732 126.498 49 113.526 49 100ZM81.5066 61.0046C75.7826 63.7267 70.7257 67.672 66.6931 72.562L71.7695 89.0703L79.6628 91.6988L96.0769 79.2234V70.7182L81.5066 61.0046ZM57.1286 104.974C57.9132 111.761 60.2671 118.078 63.8214 123.531H78.7605L83.7428 118.548L77.2854 99.1683L69.2509 96.4928L57.1286 104.974ZM91.2594 142.259C97.026 143.446 102.974 143.446 108.741 142.259L114.939 128.325L110.145 123.538H89.8549L85.0688 128.325L91.2594 142.267V142.259ZM136.171 123.538C139.623 118.25 141.946 112.162 142.793 105.61L130.678 96.5242L122.715 99.1762L116.257 118.556L121.24 123.538H136.171ZM133.205 72.4365C129.189 67.6009 124.169 63.6973 118.493 60.9968L103.923 70.7182V79.2234L120.337 91.6988L128.215 89.0782L133.205 72.4365Z" fill="black" fill-opacity="0.7"/>
</svg>
