<svg width="200" height="201" viewBox="0 0 200 201" fill="none" xmlns="http://www.w3.org/2000/svg">
<g clip-path="url(#clip0_1_308)">
<rect y="0.5" width="200" height="200" rx="100" fill="#B97C44"/>
<path fill-rule="evenodd" clip-rule="evenodd" d="M108.182 40C106.735 40 105.348 40.5732 104.325 41.5935C103.302 42.6138 102.727 43.9977 102.727 45.4406V52.9596L99.7927 51.4906C98.952 51.071 98.0177 50.8729 97.0786 50.9153C96.1395 50.9576 95.2269 51.2389 94.4276 51.7324C93.6283 52.2259 92.9689 52.9152 92.5121 53.7348C92.0554 54.5543 91.8165 55.4768 91.8181 56.4144V97.6001L77.0691 112.306C76.0358 113.336 75.455 114.734 75.4545 116.191V148.813C72.4836 148.813 70 151.29 70 154.254C70 157.217 70.0002 161 70.0002 161H130C130 161 130 157.217 130 154.254C130 151.29 127.516 148.813 124.545 148.813V67.2359C124.545 66.2159 124.26 65.2161 123.723 64.3484C123.185 63.4808 122.416 62.7794 121.502 62.323L113.636 58.4003V45.4406C113.636 43.9977 113.062 42.6138 112.039 41.5935C111.016 40.5732 109.628 40 108.182 40ZM108.978 75.0378C109.359 74.6567 109.845 74.3969 110.374 74.2914C110.903 74.1858 111.452 74.2393 111.951 74.4449C112.45 74.6505 112.876 74.9991 113.176 75.4465C113.476 75.8939 113.636 76.42 113.636 76.9583V84.6514C113.637 85.0089 113.567 85.363 113.43 85.6934C113.294 86.0239 113.093 86.3243 112.84 86.5774L107.385 92.018C107.004 92.3995 106.518 92.6593 105.988 92.7647C105.458 92.8701 104.909 92.8162 104.41 92.6099C103.911 92.4036 103.485 92.0542 103.185 91.6059C102.886 91.1577 102.726 90.6308 102.727 90.092V82.399C102.727 82.0415 102.797 81.6874 102.933 81.3569C103.07 81.0264 103.27 80.7261 103.524 80.473L108.978 75.0378ZM111.018 105.952C112.344 105.233 113.636 106.506 113.636 108.008V117.295C113.637 117.653 113.567 118.007 113.43 118.337C113.294 118.668 113.093 118.968 112.84 119.221L94.8781 137.137C94.6244 137.39 94.3232 137.59 93.9919 137.726C93.6606 137.862 93.3056 137.932 92.9472 137.932H89.0909C88.3675 137.932 87.6739 137.645 87.1624 137.135C86.6509 136.625 86.3636 135.933 86.3636 135.211V131.365C86.363 131.007 86.433 130.653 86.5696 130.323C86.7063 129.992 86.9069 129.692 87.16 129.439L109.78 106.882C110.148 106.516 110.567 106.204 111.024 105.957L111.018 105.952Z" fill="black" fill-opacity="0.7"/>
</g>
<defs>
<clipPath id="clip0_1_308">
<rect y="0.5" width="200" height="200" rx="100" fill="white"/>
</clipPath>
</defs>
</svg>
