<svg width="200" height="200" viewBox="0 0 200 200" fill="none" xmlns="http://www.w3.org/2000/svg">
<rect width="200" height="200" rx="100" fill="#B97C44"/>
<path d="M137.526 65.3158H132.368V60.1579C132.368 58.7899 131.825 57.478 130.858 56.5107C129.89 55.5434 128.578 55 127.211 55H65.3158C63.9478 55 62.6359 55.5434 61.6686 56.5107C60.7013 57.478 60.1579 58.7899 60.1579 60.1579V106.579C60.1579 112.051 62.3316 117.299 66.2007 121.168C70.0699 125.037 75.3176 127.211 80.7895 127.211H111.737C121.32 127.211 129.33 120.614 131.636 111.737H137.526C141.63 111.737 145.566 110.107 148.468 107.205C151.37 104.303 153 100.367 153 96.2632V80.7895C153 76.6856 151.37 72.7498 148.468 69.8479C145.566 66.946 141.63 65.3158 137.526 65.3158ZM142.684 96.2632C142.684 97.6311 142.141 98.943 141.174 99.9103C140.206 100.878 138.894 101.421 137.526 101.421H132.368V75.6316H137.526C138.894 75.6316 140.206 76.175 141.174 77.1423C142.141 78.1096 142.684 79.4215 142.684 80.7895V96.2632ZM132.368 137.526H55C55 146.057 61.9425 153 70.4737 153H127.211C135.742 153 142.684 146.057 142.684 137.526H132.368Z" fill="black" fill-opacity="0.7"/>
</svg>
