<svg width="200" height="200" viewBox="0 0 200 200" fill="none" xmlns="http://www.w3.org/2000/svg">
<rect width="200" height="200" rx="100" fill="#62B944"/>
<path d="M63.25 152V141.6H94.75V120.8H84.25C76.9875 120.8 70.796 118.264 65.6755 113.192C60.555 108.121 57.9965 101.99 58 94.8C58 89.6 59.4438 84.8108 62.3313 80.4324C65.2188 76.054 69.1125 72.8699 74.0125 70.88C74.8 64.38 77.6665 58.9408 82.612 54.5624C87.5575 50.184 93.3535 47.9965 100 48C106.65 48 112.448 50.1892 117.393 54.5676C122.339 58.946 125.204 64.3835 125.988 70.88C130.888 72.8733 134.781 76.0592 137.669 80.4376C140.556 84.816 142 89.6035 142 94.8C142 101.993 139.44 108.126 134.319 113.198C129.199 118.269 123.009 120.803 115.75 120.8H105.25V141.6H136.75V152H63.25Z" fill="black" fill-opacity="0.7"/>
</svg>
