<svg width="200" height="201" viewBox="0 0 200 201" fill="none" xmlns="http://www.w3.org/2000/svg">
<rect y="0.5" width="200" height="200" rx="100" fill="#A478B9"/>
<path d="M100 116C108.837 116 116 109.06 116 100.5C116 91.9396 108.837 85 100 85C91.1634 85 84 91.9396 84 100.5C84 109.06 91.1634 116 100 116Z" fill="black" fill-opacity="0.7"/>
<path d="M85.3 51L76.333 60.8889H60.8C55.41 60.8889 51 65.3389 51 70.7778V130.111C51 135.55 55.41 140 60.8 140H139.2C144.59 140 149 135.55 149 130.111V70.7778C149 65.3389 144.59 60.8889 139.2 60.8889H123.667L114.7 51H85.3ZM100 125.167C86.476 125.167 75.5 114.091 75.5 100.444C75.5 86.7978 86.476 75.7222 100 75.7222C113.524 75.7222 124.5 86.7978 124.5 100.444C124.5 114.091 113.524 125.167 100 125.167Z" fill="black" fill-opacity="0.7"/>
</svg>
