<svg width="200" height="200" viewBox="0 0 200 200" fill="none" xmlns="http://www.w3.org/2000/svg">
<rect width="200" height="200" rx="100" fill="#44ABB9"/>
<path d="M147.314 93.4242H147.419C149.233 93.4242 150.871 94.1602 152.042 95.3484C153.251 96.5022 154 98.1122 154 99.8946V100.002V100.102C154 101.884 153.251 103.494 152.042 104.644C150.868 105.832 149.229 106.568 147.415 106.568H147.306H146.526L140.514 140.565C140.26 142.093 139.445 143.476 138.224 144.455L138.213 144.463C137.081 145.417 135.599 146 133.98 146H67.012C65.3931 146 63.9108 145.417 62.7717 144.455L62.7795 144.463C61.5625 143.492 60.7472 142.118 60.4857 140.599L60.4818 140.561L54.4704 106.564H53.581C51.767 106.564 50.1286 105.828 48.9583 104.64C48.3378 104.05 47.8447 103.344 47.5082 102.563C47.1717 101.782 46.9989 100.942 47 100.094V99.8869C47 98.1045 47.749 96.4946 48.9583 95.3446C50.1325 94.1563 51.7709 93.4204 53.5849 93.4204H53.6941H53.6902L147.314 93.4242ZM72.3252 134.493C72.7629 134.463 73.1898 134.346 73.5796 134.149C73.9694 133.951 74.3139 133.677 74.5916 133.343L74.5955 133.339C74.8919 133.016 75.117 132.636 75.2566 132.223C75.3963 131.81 75.4474 131.373 75.4069 130.939V130.951L73.7334 109.593C73.7036 109.162 73.5843 108.743 73.383 108.36C73.1817 107.977 72.9027 107.638 72.5631 107.365L72.5592 107.362C72.2302 107.07 71.8433 106.849 71.4231 106.712C71.0028 106.575 70.5582 106.525 70.1172 106.564H70.1289C69.6912 106.594 69.2643 106.711 68.8745 106.909C68.4847 107.106 68.1402 107.381 67.8625 107.714L67.8585 107.718C67.5622 108.041 67.3371 108.422 67.1975 108.835C67.0578 109.247 67.0067 109.684 67.0471 110.118V110.106L68.7207 131.465C68.7763 132.292 69.1601 133.066 69.7895 133.619L69.7934 133.623C70.3957 134.184 71.1945 134.497 72.0248 134.497H72.0677H72.0638L72.3252 134.493ZM93.8001 131.212V109.823C93.8013 109.397 93.7141 108.975 93.5437 108.584C93.3733 108.192 93.1234 107.839 92.8092 107.546C92.5098 107.237 92.1496 106.992 91.7505 106.824C91.3515 106.657 90.922 106.571 90.4881 106.572H90.4257C89.9924 106.571 89.5633 106.656 89.1649 106.824C88.7665 106.991 88.407 107.237 88.1085 107.546C87.7946 107.84 87.5449 108.194 87.3745 108.586C87.2042 108.978 87.1168 109.4 87.1177 109.826V131.246C87.1177 132.143 87.4961 132.952 88.1085 133.523C88.408 133.831 88.7682 134.077 89.1672 134.244C89.5663 134.412 89.9958 134.498 90.4296 134.497H90.492C90.9254 134.498 91.3544 134.412 91.7529 134.245C92.1513 134.077 92.5108 133.832 92.8092 133.523C93.1274 133.229 93.3809 132.874 93.554 132.479C93.7271 132.085 93.8161 131.66 93.8157 131.231V131.208L93.8001 131.212ZM113.863 131.212V109.823C113.864 109.397 113.777 108.975 113.606 108.584C113.436 108.192 113.186 107.839 112.872 107.546C112.572 107.237 112.212 106.992 111.813 106.824C111.414 106.657 110.985 106.571 110.551 106.572H110.488C110.055 106.571 109.626 106.656 109.228 106.824C108.829 106.991 108.47 107.237 108.171 107.546C107.857 107.84 107.608 108.194 107.437 108.586C107.267 108.978 107.18 109.4 107.18 109.826V131.246C107.18 132.143 107.559 132.952 108.171 133.523C108.471 133.831 108.831 134.077 109.23 134.244C109.629 134.412 110.059 134.498 110.492 134.497H110.555C110.988 134.498 111.417 134.412 111.816 134.245C112.214 134.077 112.574 133.832 112.872 133.523C113.19 133.229 113.444 132.874 113.617 132.479C113.79 132.085 113.879 131.66 113.878 131.231V131.208L113.863 131.212ZM132.252 131.465L133.926 110.106C133.963 109.674 133.911 109.239 133.771 108.828C133.632 108.417 133.408 108.038 133.114 107.714L133.118 107.718C132.841 107.384 132.497 107.109 132.108 106.91C131.719 106.711 131.293 106.592 130.855 106.56H130.844C130.404 106.523 129.961 106.575 129.543 106.712C129.124 106.849 128.739 107.069 128.41 107.358L128.413 107.354C128.073 107.626 127.794 107.964 127.591 108.346C127.388 108.728 127.267 109.147 127.235 109.577V109.589L125.562 130.947C125.524 131.379 125.577 131.814 125.716 132.225C125.856 132.637 126.079 133.016 126.373 133.339L126.369 133.335C126.646 133.669 126.99 133.944 127.379 134.143C127.768 134.342 128.194 134.461 128.632 134.493H128.944C129.775 134.493 130.575 134.18 131.179 133.619C131.817 133.067 132.208 132.29 132.268 131.457V131.445L132.252 131.465ZM71.8727 68.9839L67.0159 90.1353H60.119L65.3931 67.4966C66.029 64.4876 67.6947 61.9385 70.0041 60.1561L70.0314 60.1369C72.3555 58.285 75.2586 57.2777 78.2508 57.285H78.399H78.3912H87.1138V57.2544C87.1138 56.3574 87.4922 55.5486 88.1046 54.9775C88.4044 54.668 88.7651 54.4217 89.1648 54.2537C89.5645 54.0857 89.9949 53.9993 90.4296 54H110.566C111.479 54 112.302 54.3718 112.884 54.9736C113.198 55.2679 113.447 55.6218 113.618 56.0139C113.788 56.406 113.875 56.828 113.875 57.2544V57.285H122.741C125.866 57.285 128.733 58.3583 130.98 60.1522L130.957 60.1331C133.323 61.9478 134.961 64.5261 135.58 67.4123L135.595 67.4928L140.869 90.1315H133.972L129.116 68.98C128.763 67.5285 127.932 66.2322 126.752 65.2925L126.74 65.281C125.592 64.3493 124.149 63.8409 122.66 63.8436H113.863V63.8743C113.864 64.3001 113.777 64.7216 113.606 65.1132C113.436 65.5047 113.186 65.8579 112.872 66.1512C112.572 66.4596 112.212 66.705 111.813 66.8724C111.414 67.0398 110.985 67.1257 110.551 67.1248H90.4296C89.9963 67.126 89.5672 67.0403 89.1688 66.8729C88.7704 66.7055 88.4109 66.4599 88.1124 66.1512C87.7985 65.8569 87.5488 65.503 87.3784 65.1109C87.2081 64.7188 87.1207 64.2967 87.1216 63.8704V63.8398H78.3249C76.8323 63.8381 75.3861 64.3493 74.2367 65.2849L74.2484 65.2772C73.077 66.2094 72.2504 67.4944 71.8961 68.934L71.8883 68.98L71.8727 68.9839Z" fill="black" fill-opacity="0.7"/>
</svg>
