<svg width="28" height="28" viewBox="0 0 28 28" fill="none" xmlns="http://www.w3.org/2000/svg">
<path fill-rule="evenodd" clip-rule="evenodd" d="M14.0616 0.5C14.89 0.5 15.5616 1.17157 15.5616 2L15.5616 5.01539C15.5616 5.84381 14.89 6.51539 14.0616 6.51539C13.2331 6.51539 12.5616 5.84381 12.5616 5.01539L12.5616 2C12.5616 1.17157 13.2331 0.5 14.0616 0.5Z" fill="#808080"/>
<path fill-rule="evenodd" clip-rule="evenodd" d="M21.6078 14.0615C21.6078 13.2331 22.2793 12.5615 23.1078 12.5615H26.1231C26.9516 12.5615 27.6231 13.2331 27.6231 14.0615C27.6231 14.89 26.9516 15.5615 26.1231 15.5615H23.1078C22.2793 15.5615 21.6078 14.89 21.6078 14.0615Z" fill="#808080"/>
<path fill-rule="evenodd" clip-rule="evenodd" d="M14.0616 21.6077C14.89 21.6077 15.5616 22.2792 15.5616 23.1077L15.5616 26.1231C15.5616 26.9515 14.89 27.6231 14.0616 27.6231C13.2331 27.6231 12.5616 26.9515 12.5616 26.1231L12.5616 23.1077C12.5616 22.2792 13.2331 21.6077 14.0616 21.6077Z" fill="#808080"/>
<path fill-rule="evenodd" clip-rule="evenodd" d="M0.500031 14.0615C0.500031 13.2331 1.1716 12.5615 2.00003 12.5615L5.01542 12.5615C5.84384 12.5615 6.51542 13.2331 6.51542 14.0615C6.51542 14.89 5.84384 15.5615 5.01542 15.5615L2.00003 15.5615C1.1716 15.5615 0.500031 14.89 0.500031 14.0615Z" fill="#808080"/>
<circle cx="14" cy="14" r="4" fill="#808080"/>
<path fill-rule="evenodd" clip-rule="evenodd" d="M14.0616 6.51538C9.894 6.51538 6.51547 9.89391 6.51547 14.0615C6.51547 18.2292 9.894 21.6077 14.0616 21.6077C18.2293 21.6077 21.6078 18.2292 21.6078 14.0615C21.6078 9.89391 18.2293 6.51538 14.0616 6.51538ZM3.51547 14.0615C3.51547 8.23706 8.23715 3.51538 14.0616 3.51538C19.8861 3.51538 24.6078 8.23706 24.6078 14.0615C24.6078 19.886 19.8861 24.6077 14.0616 24.6077C8.23715 24.6077 3.51547 19.886 3.51547 14.0615Z" fill="#808080"/>
</svg>
